<svg width="22" height="22" viewBox="0 0 22 22" fill="none" xmlns="http://www.w3.org/2000/svg">
<g id="4747497_social media_facebook_icon">
<path id="Vector" d="M18.3452 1.06641H3.46806C2.69514 1.06641 1.95385 1.37345 1.40731 1.92C0.860757 2.46655 0.553711 3.20782 0.553711 3.98076V18.8579C0.553711 19.6309 0.860757 20.3722 1.40731 20.9187C1.95385 21.4652 2.69514 21.7723 3.46806 21.7723H10.2389V14.2146H7.67912V11.2666H10.2389V9.09511C10.2389 7.86441 10.5792 6.90806 11.2599 6.22864C11.9406 5.54794 12.8634 5.20629 14.0293 5.20629C15.1966 5.20629 15.9524 5.25159 16.2979 5.337V7.96147H14.7424C14.1807 7.96147 13.7977 8.08053 13.5919 8.31864C13.3874 8.55547 13.2852 8.91264 13.2852 9.38759V11.2666H16.2009L15.8126 14.2146H13.2852V21.7723H18.3452C19.1182 21.7723 19.8595 21.4652 20.406 20.9187C20.9526 20.3722 21.2596 19.6309 21.2596 18.8579V3.98076C21.2596 3.20782 20.9526 2.46655 20.406 1.92C19.8595 1.37345 19.1182 1.06641 18.3452 1.06641Z" fill="black"/>
</g>
</svg>
