<svg width="16" height="16" viewBox="0 0 16 16" fill="none" xmlns="http://www.w3.org/2000/svg">
<g id="add_FILL0_wght500_GRAD0_opsz24 1">
<path id="Vector" d="M7.31075 8.68783H4.32393C4.13047 8.68783 3.9672 8.62129 3.83413 8.48822C3.70106 8.35515 3.63452 8.19189 3.63452 7.99843C3.63452 7.80498 3.70106 7.64172 3.83413 7.50865C3.9672 7.37558 4.13047 7.30904 4.32393 7.30904H7.31075V4.32222C7.31075 4.12876 7.37728 3.96549 7.51035 3.83242C7.64343 3.69935 7.80669 3.63281 8.00014 3.63281C8.1936 3.63281 8.35686 3.69935 8.48993 3.83242C8.623 3.96549 8.68954 4.12876 8.68954 4.32222V7.30904H11.6764C11.8698 7.30904 12.0331 7.37558 12.1662 7.50865C12.2992 7.64172 12.3658 7.80498 12.3658 7.99843C12.3658 8.19189 12.2992 8.35515 12.1662 8.48822C12.0331 8.62129 11.8698 8.68783 11.6764 8.68783H8.68954V11.6746C8.68954 11.8681 8.623 12.0314 8.48993 12.1644C8.35686 12.2975 8.1936 12.3641 8.00014 12.3641C7.80669 12.3641 7.64343 12.2975 7.51035 12.1644C7.37728 12.0314 7.31075 11.8681 7.31075 11.6746V8.68783Z" fill="#5534DA"/>
</g>
</svg>
