<svg xmlns="http://www.w3.org/2000/svg" width="20" height="20" fill="none"><path fill="#787486" d="M9.37508 10.7083v2.7083c0 .1774.05983.3259.17948.4455.11965.1197.26815.1795.44554.1795.1773 0 .3258-.0598.4455-.1795.1196-.1196.1794-.2681.1794-.4455v-2.7083h2.7084c.1773 0 .3258-.0598.4455-.1795.1196-.1196.1795-.2681.1795-.4455 0-.17733-.0599-.32583-.1795-.44549-.1197-.11965-.2682-.17948-.4455-.17948H10.625V6.74998c0-.17735-.0598-.32585-.1794-.4455-.1197-.11965-.2682-.17948-.4455-.17948-.17739 0-.32589.05983-.44554.17948-.11965.11965-.17948.26815-.17948.4455v2.70835H6.66673c-.17735 0-.32585.05983-.4455.17948-.11966.11966-.17948.26816-.17948.44549 0 .1774.05982.3259.17948.4455.11965.1197.26815.1795.4455.1795h2.70835Zm-4.95192 6.4583c-.42094 0-.77725-.1458-1.06891-.4375-.29167-.2916-.4375-.6479-.4375-1.0689V4.50642c0-.42095.14583-.77725.4375-1.06892C3.64591 3.14583 4.00222 3 4.42316 3H15.577c.4209 0 .7772.14583 1.0689.4375.2916.29167.4375.64797.4375 1.06892V15.6602c0 .421-.1459.7773-.4375 1.0689-.2917.2917-.648.4375-1.0689.4375H4.42316Zm0-1.25H15.577c.0641 0 .1228-.0267.1763-.0801.0534-.0534.0801-.1122.0801-.1763V4.50642c0-.06411-.0267-.12288-.0801-.17632-.0535-.05341-.1122-.08012-.1763-.08012H4.42316c-.06411 0-.12288.02671-.17631.08012-.05341.05344-.08012.11221-.08012.17632V15.6602c0 .0641.02671.1229.08012.1763.05343.0534.1122.0801.17631.0801Z"/></svg>

