<svg xmlns="http://www.w3.org/2000/svg" width="32" height="32" fill="none"><path fill="#000" d="M16 17.405 9.236 24.17a.966.966 0 0 1-.696.284.942.942 0 0 1-.71-.284.957.957 0 0 1-.289-.702c0-.276.097-.51.29-.703L14.595 16 7.83 9.236a.966.966 0 0 1-.284-.696.942.942 0 0 1 .284-.71.957.957 0 0 1 .702-.289c.276 0 .51.097.703.29L16 14.595l6.764-6.764a.966.966 0 0 1 .696-.284c.28-.004.516.09.71.284.192.193.289.427.289.702 0 .276-.097.51-.29.703L17.405 16l6.764 6.764a.966.966 0 0 1 .284.696.942.942 0 0 1-.284.71.957.957 0 0 1-.702.289.956.956 0 0 1-.703-.29L16 17.405Z"/></svg>