<svg xmlns="http://www.w3.org/2000/svg" width="16" height="16" fill="none"><path fill="#fff" d="M7.5 8.567v2.167c0 .142.048.26.143.356a.484.484 0 0 0 .357.144c.142 0 .26-.048.356-.144a.484.484 0 0 0 .144-.356V8.567h2.166c.142 0 .261-.048.357-.144a.484.484 0 0 0 .143-.356.484.484 0 0 0-.143-.356.484.484 0 0 0-.357-.144H8.5V5.4a.484.484 0 0 0-.144-.356A.484.484 0 0 0 8 4.9a.484.484 0 0 0-.357.144.484.484 0 0 0-.143.356v2.167H5.333a.484.484 0 0 0-.356.144.484.484 0 0 0-.144.356c0 .142.048.26.144.356a.484.484 0 0 0 .356.144H7.5Zm-3.962 5.167c-.337 0-.622-.117-.855-.35a1.163 1.163 0 0 1-.35-.855V3.606c0-.337.117-.622.35-.856.233-.233.518-.35.855-.35h8.923c.337 0 .622.117.855.35.234.234.35.519.35.856v8.923c0 .336-.116.621-.35.855-.233.233-.518.35-.855.35H3.538Zm0-1h8.923a.196.196 0 0 0 .141-.064.196.196 0 0 0 .064-.141V3.606a.196.196 0 0 0-.064-.142.196.196 0 0 0-.14-.064H3.537a.196.196 0 0 0-.14.064.196.196 0 0 0-.065.142v8.923c0 .05.021.098.064.14.043.043.09.065.141.065Z"/></svg>