<svg xmlns="http://www.w3.org/2000/svg" width="28" height="28" fill="none"><path fill="#000" d="M14 22.48c-.481 0-.893-.17-1.236-.513a1.685 1.685 0 0 1-.514-1.236c0-.481.171-.893.514-1.236A1.685 1.685 0 0 1 14 18.981c.481 0 .893.171 1.236.514.343.343.514.755.514 1.236s-.171.893-.514 1.236A1.685 1.685 0 0 1 14 22.48Zm0-6.73c-.481 0-.893-.171-1.236-.514A1.685 1.685 0 0 1 12.25 14c0-.481.171-.893.514-1.236A1.685 1.685 0 0 1 14 12.25c.481 0 .893.172 1.236.514.343.343.514.755.514 1.236 0 .482-.171.893-.514 1.236A1.685 1.685 0 0 1 14 15.75Zm0-6.73c-.481 0-.893-.172-1.236-.515a1.685 1.685 0 0 1-.514-1.236c0-.48.171-.893.514-1.235A1.685 1.685 0 0 1 14 5.52c.481 0 .893.17 1.236.514.343.342.514.754.514 1.235 0 .482-.171.894-.514 1.236A1.685 1.685 0 0 1 14 9.02Z"/></svg>