<svg xmlns="http://www.w3.org/2000/svg" width="24" height="28" fill="none"><g fill="#5534DA"><path d="M23.625 2.0783c-.0109-.02176-.0363-.03626-.0618-.02901-.2217.09427-.4435.17405-.6725.25744-.6289.23207-1.2832.38436-1.9375.53665-.7489.1668-1.5123.28646-2.2575.47138-.6434.15592-1.2832.34447-1.9012.59104-.4653.1813-.9233.37711-1.3523.6273-.5089.2792-.9197.69619-1.3195 1.10956-.3672.38435-.738.76871-1.0615 1.19295-.1818.23932-.3344.50039-.4799.76146.2291-.86298.549-1.73323 1.1342-2.42217.0436-.05439-.0072-.11965-.069-.09065-.1491.07252-.2872.1668-.429.25382-1.0833.73246-2.0502 1.64258-2.8827 2.64699-.40714.49676-.79974 1.0044-1.12327 1.55918-.37442.64906-.65797 1.34886-.86154 2.07046-.02181-.4279.01454-.8558.07271-1.28.0109-.0761.02181-.1487.02544-.2248 0-.0508.01454-.12329-.03635-.1523-.03635-.01813-.0727 0-.09815.02901-.03271.03259-.05816.06889-.08724.10519-.05817.0761-.11633.1559-.17086.2357-.18175.2574-.34534.5294-.48711.8122-.34898.7143-.66887 1.4359-.99241 2.1611-.32716.7252-.62888 1.4649-.94514 2.1937-.30172.689-.63253 1.367-.97423 2.0378-.1854.359-.37443.718-.59617 1.0588a8.78187 8.78187 0 0 1-.29445.4243c.01454-.029.02908-.0544.04362-.0834.29808-.5838.50166-1.2075.68705-1.8348.15268-.4025.30535-.805.47621-1.1966.19993-.446.37806-.8992.54891-1.3561.34171-.863.75612-1.6897 1.22869-2.4911.30536-.5185.63252-1.0261.93061-1.5519.27991-.4931.50166-1.01528.75612-1.51929.18903-.37711.38169-.75421.54528-1.14219.04725-.10878.09451-.22119.13813-.3336.01818-.05439.03999-.1124.0509-.17042 0-.02175.00363-.04714-.01091-.06889-.03272-.05077-.09815-.03264-.13814 0-.11632.08702-.22538.17767-.33807.27195-.36352.30821-.74158.59829-1.13054.87386.83246-1.00802 1.71944-2.03781 2.11931-3.30691.02908-.10878.10906-.38073.02908-.47138-.05453-.04714-.11632.01813-.14904.05802-.33807.42061-.69432.82672-1.09056 1.19295.15268-.23932.29809-.48588.42896-.7397.21811-.43513.43258-.87387.61071-1.32712.21084-.55478.37079-1.12406.53805-1.68972.1708-.61642.3235-1.2401.5089-1.85289.0182-.05801.0363-.11603.0472-.17767 0-.01813.0073-.03989 0-.05802-.0109-.03263-.0509-.05439-.0836-.04351-.0291.00725-.0581.02538-.0836.04714-.3708.3481-.70157.73608-1.05782 1.09505-.26173.26833-.5271.54028-.77793.81948-.50529.57291-.95605 1.19658-1.3123 1.87102-.32353.61279-.55982 1.27635-.70523 1.95441-.1963.88475-.26173 1.79125-.38532 2.68687-.14178-.38798-.22539-.79772-.24356-1.21471a113.25166 113.25166 0 0 1-.02181-.4315c0-.06889 0-.21756-.10542-.18492-.03272.01813-.0509.05439-.06907.09065-.03272.06527-.0618.13416-.09088.20306-.09088.2103-.19267.41336-.28718.62004-.269.58016-.50166 1.18208-.62162 1.80938-.10542.51489-.15995 1.04066-.15995 1.56276 0 .7325.1127 1.4541.10906 2.1902-.19994-.3228-.40351-.6491-.48711-1.0262-.04363-.1777-.07634-.3554-.10543-.533-.00727-.0508-.01817-.1052-.02544-.1559-.00727-.0363-.00727-.0834-.03635-.1088-.06544-.0508-.10906.0362-.1236.0906-.1236.3916-.18539.805-.19993 1.2184-.01818.4169.02181.8339.06179 1.2509.03636.3771.07634.7542.10179 1.135-.01818.1378-.02545.2755-.03635.4133-.04363.6781-.11996 1.3562-.25083 2.0233-.08725.5367-.19994 1.0661-.38897 1.581-.10905.3662-.25082.7216-.42895 1.0588-.02908.0471-.05452.0979-.07997.145-.35261.6273-.67615 1.2691-1.03239 1.8928-.21448.3662-.42168.7397-.61435 1.1204-.14177.2466-.27264.4968-.38533.7542-.09815.2176-.19266.4388-.2799.66-.03272.0942-.12724.2828-.07635.3771.07634.0689.13814-.0218.1854-.1197.0109-.0109.0218-.0217.02908-.0326.02908-.0399.05453-.0798.07634-.1233.05816-.0979.11632-.1922.17085-.2865.23992-.417.47258-.8376.70886-1.2582.35262-.6527.73794-1.2872 1.12691-1.9218.06543-.1051.12723-.2103.19266-.3191.07998-.116.15995-.2284.24356-.3444.14904-.2031.30899-.3989.48348-.5802.21448-.2357.48348-.4641.73431-.6635.36352-.2938.69068-.6273 1.01058-.9646.74521-.8086 1.4468-1.657 2.17384-2.4838.48348-.5801 1.00331-1.1385 1.55949-1.6462.41078-.3445.83609-.6744 1.26864-.9899.6907-.4931 1.4178-.9319 2.1048-1.4323.8107-.591 1.6031-1.2074 2.3302-1.89998.0218-.02538.0472-.05439.0327-.09065-.0146-.04713-.0727-.03988-.1127-.029-.1636.04351-.3199.10878-.4799.14866-.1635.03627-.3308.06887-.4943.09787-.4472.0871-.9052.1233-1.3596.1269.2581-.0979.5198-.1921.7816-.27916.6507-.1958 1.3086-.3626 1.9448-.60191 1.1305-.38799 2.1193-1.08418 3.0245-1.84927.2217-.18492.4471-.36985.6507-.57653.0363-.04351.0908-.0834.0981-.14504 0-.07252-.0872-.07252-.1418-.05802-.5089.10878-1.0214.21394-1.5376.26833-.3417.03263-.698.05801-1.0397-.00363.3962-.11966.7961-.22481 1.2032-.30821.3781-.07615.7598-.14867 1.1269-.26107.5708-.1668 1.0833-.49314 1.5196-.892.2617-.25019.5052-.51852.7452-.79047.2544-.29008.4834-.60191.7524-.88112.3527-.36985.738-.70707 1.1488-1.00802.3053-.23932.6325-.44238.9706-.63456.0254-.0145.0509-.02175.0763-.03626.0218-.0145.0291-.03988.0182-.06526h-.0146ZM3.75876 19.3054h-.00727.00727Zm.86881-3.8979c.2799-.9138.54891-1.8311.83972-2.7413.27264-.9319.54528-1.8637.83246-2.78837.3199-1.09505.57436-2.20824.91243-3.29966.23992-.76872.50893-1.53018.81065-2.27713.27264-.67444.57799-1.338.9924-1.93992-.33807.80135-.68705 1.59545-.9815 2.4113-.28354.71432-.52346 1.44315-.73067 2.18285-.50529 1.63533-.81064 3.32503-1.29776 4.96403-.2072.7252-.43986 1.4431-.69068 2.1574-.17813.5113-.38897 1.0226-.56346 1.5338-.38896 1.135-.74885 2.2808-1.19234 3.3976-.00727.0073-.01454.0145-.02181.0218-.01454-.0037-.02908 0-.03999.0036.07634-.2393.14905-.4823.21084-.7252.29445-.9718.61799-1.9327.91971-2.9008ZM15.5549 6.49477c-.4217.29008-.8433.58016-1.2432.89562-.6652.5294-1.3123 1.07692-1.9557 1.6317-.3745.3336-.7125.70707-1.0651 1.06601-.349.3626-.7016.718-1.0324 1.0951-.43989.4895-.89065.9718-1.31234 1.4794-.37078.4351-.70886.8992-1.04329 1.3634-.2472.3299-.49802.6599-.73068 1.0008-.27627.3952-.56345.7795-.83972 1.1748-.27628.3988-.54892.7977-.81792 1.2002-.17085.2538-.34171.5113-.54164.7469-.23629.2792-.47985.573-.74885.8304a10.60415 10.60415 0 0 0-.29808.2756h-.00364c-.04726-.0109-.04726-.0544-.03635-.0907.19266-.2139.38533-.4242.57436-.6418.22901-.2647.43622-.5475.62888-.8376 1.02513-1.4939 2.06115-2.9842 3.16261-4.4273.41078-.5331.8361-1.0588 1.29413-1.552.78883-.8339 1.60313-1.6389 2.41743-2.45114 1.0505-1.04429 2.1702-2.02331 3.388-2.86817.9706-.65268 2.0029-1.21109 3.0681-1.69334-.9961.53302-1.9267 1.18207-2.8646 1.80574v-.00362ZM16.4491 24.843c-.0291.0617-.0691.1161-.1127.1668-.458.475-1.1342.7216-1.774.8485-.647.1342-1.3123.0109-1.9448-.1305.6289-.5185 1.3341-1.1241 1.4759-1.9689.1381-1.0117-.8179-1.668-1.7376-1.7115-3.07539-.1015-5.85267 1.5628-8.4591 3.0023-.98877.5403-2.09023 1.2329-3.2644.9609-.16358-.0471-.3308-.1523-.38169-.3263.00363-.0472-.01818-.1016-.06543-.1233-.36352-.0725-.10542.4387.0618.5294 1.44316.8231 3.44978-.7035 4.72573-1.3634 1.31594-.7179 2.6755-1.4431 4.10776-1.9109 1.18873-.3517 2.59553-.7433 3.82063-.4134.6252.1813 1.1123.834.9124 1.4867-.2508.7542-.9015 1.2872-1.5086 1.7586-.9561-.2284-1.9485-.4786-2.93725-.3372-.54528.0979-1.17416.2901-1.4468.8122-.42532.8558.63979 1.0226 1.25777 1.0044 1.15958-.0362 2.26468-.5112 3.18078-1.2111 1.0397.272 2.0684.3735 3.0826-.0543.4581-.2104.9779-.4424 1.2251-.9102.0763-.1414-.149-.2574-.2217-.116l.0036.0072ZM9.146 26.8845c-.33443-.0254-.92333.0217-1.0651-.3517-.02182-.4714.50165-.747.89425-.8667 1.00695-.3045 2.06845-.0507 3.06445.1813-.8397.6128-1.8467 1.0081-2.8936 1.0371Z"/></g></svg>