<svg xmlns="http://www.w3.org/2000/svg" width="20" height="20" fill="none"><path fill="#787486" d="M8.7339 17.9173c-.18698 0-.34884-.0628-.48559-.1883-.13675-.1256-.21901-.2818-.24679-.4688l-.24198-1.8814c-.22329-.0748-.45219-.1795-.68671-.3141-.23451-.1346-.44418-.2788-.62902-.4327l-1.74037.734c-.17842.078-.3555.087-.53125.0272-.17575-.0598-.31384-.172-.41427-.3365L2.50475 12.874c-.0951-.1645-.12448-.3402-.08815-.5272.03632-.187.1298-.3376.28044-.4519l1.50642-1.1395a4.17426 4.17426 0 0 1-.04088-.3734 5.8354 5.8354 0 0 1-.01202-.3733c0-.11864.00401-.23911.01202-.36144.00802-.12234.02164-.25615.04088-.40144L2.69704 8.10638c-.15064-.1143-.24545-.26494-.28444-.45192-.039-.18695-.00828-.3627.09215-.52722l1.25317-2.16663c.10043-.16453.23718-.27671.41027-.33654.17307-.05984.34881-.05075.52723.02725l1.74037.72596c.20086-.1592.41534-.30477.64344-.43671.22811-.13196.45221-.238.67229-.31813l.25-1.88139c.02778-.18698.11004-.34323.24679-.46875.13675-.12554.29861-.18832.48559-.18832h2.524c.187 0 .3501.06278.4896.18832.1394.12552.223.28177.2508.46875l.2419 1.88941c.25.09081.4763.19684.6788.31811.2024.12126.4067.26416.6129.42871l1.7725-.72596c.1784-.078.3541-.08842.5272-.03125.1731.05715.3098.16799.4103.33252l1.2531 2.17465c.1005.16452.1312.34027.0922.52722-.039.18698-.1338.33762-.2845.45192l-1.5384 1.16346c.0299.13462.0462.26043.0489.37742.0026.11698.004.23477.004.35334 0 .1133-.0027.2284-.008.3454-.0054.117-.0246.2508-.0577.4014l1.5224 1.1475c.1506.1143.2455.2649.2845.4519.039.187.0082.3627-.0922.5272l-1.2532 2.1699c-.1004.1645-.2406.2775-.4206.3389-.1801.0614-.3593.0532-.5377-.0248l-1.7228-.734c-.2062.1645-.4166.3101-.6314.4367-.2147.1266-.4348.23-.6603.3101l-.2419 1.8894c-.0278.187-.1114.3432-.2508.4688-.1395.1255-.3026.1883-.4896.1883h-2.524Zm.43266-1.25h1.63784l.2997-2.2324c.4252-.1111.8138-.2689 1.1658-.4735s.6915-.4677 1.0185-.7893l2.0705.8702.8205-1.4167-1.8077-1.3622c.0694-.2158.1167-.4273.1418-.6346a5.219 5.219 0 0 0 .0377-.6282c0-.21684-.0126-.42625-.0377-.62818-.0251-.20191-.0724-.40811-.1418-.61858l1.8237-1.37821-.8205-1.41667-2.0946.88303c-.2788-.29809-.6129-.56144-1.0024-.79007-.3894-.22864-.7834-.3905-1.1819-.48558l-.2628-2.23238H9.17937l-.27562 2.22436c-.42522.10043-.81785.25428-1.1779.46154-.36004.20726-.70352.47436-1.03043.80129L4.6249 5.95896l-.82053 1.41667 1.79969 1.34136c-.06944.19763-.11805.40329-.14583.61697-.02778.21369-.04167.43858-.04167.67474 0 .2168.01389.4294.04167.6378.02778.2083.07371.414.13781.6169l-1.79167 1.3622.82053 1.4167 2.0625-.875c.31623.3248.65437.5908 1.01441.7981.36004.2072.75802.3664 1.19392.4775l.27083 2.2244Zm.84294-4.1667c.6934 0 1.2834-.2433 1.77-.7299.4867-.4867.73-1.0767.73-1.7701 0-.69333-.2433-1.28334-.73-1.76999-.4866-.48664-1.0766-.72996-1.77-.72996-.7019 0-1.29404.24332-1.77642.72996-.48236.48665-.72354 1.07666-.72354 1.76999 0 .6934.24118 1.2834.72354 1.7701.48238.4866 1.07452.7299 1.77642.7299Z"/></svg>